<svg width="24" height="24" viewBox="0 0 24 24" fill="none" xmlns="http://www.w3.org/2000/svg">
<g clip-path="url(#clip0)">
<path d="M23.7567 12.301L23.5881 12.5563L20.4366 15.7078C20.1293 16.0151 19.6283 16.0151 19.3226 15.7078C19.0153 15.4005 19.0153 14.901 19.3226 14.5937L21.1284 12.7879H12.7879V21.1283L14.5937 19.3225C14.8994 19.0152 15.4005 19.0152 15.7078 19.3225C16.0135 19.6298 16.0135 20.1293 15.7078 20.4366L12.5563 23.5881L12.5484 23.5928L12.301 23.7567L12 23.8182H11.9968L11.699 23.7567L11.4516 23.5928L11.4422 23.5881L8.29064 20.4366C7.98335 20.1293 7.98335 19.6298 8.29064 19.3226C8.59793 19.0153 9.09744 19.0153 9.40469 19.3226L11.2121 21.1284V12.7879H2.87166L4.67749 14.5937C4.98478 14.901 4.98478 15.4005 4.67749 15.7078C4.37019 16.015 3.87068 16.0151 3.56344 15.7078L0.411872 12.5563L0.407162 12.5484L0.243302 12.301L0.181824 12V11.9968L0.243302 11.699L0.407162 11.4532L0.411872 11.4437L3.56339 8.29217C3.87068 7.98488 4.37019 7.98488 4.67744 8.29217C4.98473 8.59788 4.98473 9.09898 4.67744 9.40622L2.87166 11.2121H11.2122V2.8716L9.40632 4.67743C9.09903 4.98314 8.59952 4.98314 8.29228 4.67743C7.98498 4.37013 7.98498 3.86909 8.29228 3.56338L11.4438 0.411861L11.6991 0.241703L11.9969 0.181812H12.0001L12.301 0.24329L12.5563 0.411909L15.7078 3.56343C16.0135 3.87072 16.0135 4.37177 15.7078 4.67748C15.4005 4.98477 14.8995 4.98477 14.5938 4.67748L12.7879 2.87164V11.2121H21.1284L19.3226 9.40627C19.0169 9.10056 19.0169 8.59946 19.3226 8.29222C19.6299 7.98651 20.1309 7.98651 20.4367 8.29222L23.5882 11.4437L23.7583 11.699L23.8182 11.9968V12L23.7567 12.301Z" fill="#00E394"/>
</g>
<defs>
<clipPath id="clip0">
<rect width="23.6364" height="23.6364" fill="white" transform="matrix(1 0 0 -1 0.181824 23.8182)"/>
</clipPath>
</defs>
</svg>
