<svg xmlns="http://www.w3.org/2000/svg" width="201" height="58" viewBox="0 0 201 58" fill="none">
<path d="M4.71545 21.3352L0 0L29.0515 23.0636L33.9837 16.6901L40.271 15.4478L47.1003 14.0974L40.271 24.576V38.6734L5.31166 57.9561L14.9052 42.6704L23.9024 37.161L14.5257 39.3756L6.44987 25.7643L23.1978 30.3554" fill="white"/>
<path d="M85.6367 15.4478C85.4199 15.9339 84.8779 17.0141 84.2275 18.4185H70.5689V25.4402H80.867C80.4334 26.4124 79.9456 27.3306 79.512 28.3029H70.6231V38.8354H67.5879V15.4478H85.6367Z" fill="white"/>
<path d="M165.583 15.3398C165.583 15.7178 165.583 16.204 165.583 16.7981V32.0838L149.052 14.7456V38.7274H151.924V22.1994L168.456 39.3216V16.7981C168.456 16.204 168.456 15.7178 168.456 15.3398H165.583Z" fill="white"/>
<path d="M134.417 15.3936V28.6268C134.417 33.65 132.087 36.0266 127.642 36.0266C123.198 36.0266 120.867 33.65 120.867 28.6268V15.3936H117.995V28.7888C117.995 35.3784 121.355 38.7812 127.588 38.7812C133.821 38.7812 137.182 35.3244 137.182 28.7888V15.3936H134.417Z" fill="white"/>
<path d="M98.9703 15.1777C98.9703 15.1777 87.5882 38.7815 87.6966 38.7815H90.9486L98.9703 21.3892L106.992 38.7815H110.244C110.352 38.7815 98.9703 15.1777 98.9703 15.1777Z" fill="white"/>
<path d="M189.593 15.1777C189.593 15.1777 178.211 38.7815 178.32 38.7815H181.572L189.593 21.3892L197.615 38.7815H200.867C200.975 38.7815 189.593 15.1777 189.593 15.1777Z" fill="white"/>
</svg>