<svg xmlns="http://www.w3.org/2000/svg" viewBox="0 0 171 50">
  <g fill="none" fill-rule="evenodd">
    <g fill="#FFF">
      <path d="M72.984 12.637v.013c-.197.405-.63 1.312-1.212 2.522H60.208v5.98h8.712c-.39.81-.78 1.634-1.167 2.444h-7.545v8.95H57.65l-.004-19.928 15.338.02zM140.71 12.567c-.002.342-.002.757-.002 1.26v13.04l-13.992-14.76v20.43h2.446v-14.14l13.992 14.6v-19.17-1.26h-2.445zM114.327 12.604v11.282c0 4.26-1.973 6.293-5.727 6.293-3.754 0-5.728-2.034-5.728-6.294V12.604h-2.423v11.423c0 5.6 2.867 8.533 8.15 8.533 5.282 0 8.15-2.933 8.15-8.533V12.604h-2.423zM84.273 12.418s-9.65 20.127-9.53 20.127h2.735l6.795-14.796 6.794 14.795h2.736c.12 0-9.53-20.127-9.53-20.127M161.078 12.418s-9.65 20.127-9.53 20.127h2.735l6.795-14.796 6.794 14.795h2.736c.12 0-9.53-20.127-9.53-20.127"/>
    </g>
    <path fill="#6AC044" d="M12.71 36.814L4.512 49.987 34.408 33.39"/>
    <path fill="#3B8B17" d="M25.473 28.997l2.56 1.26-7.592 1.82-7.73 4.737 21.698-3.425-8.93-4.395"/>
    <path fill="#D23128" d="M24.834 19.953l9.574 1.292-5.375-6.81"/>
    <path fill="#92E16F" d="M25.473 28.997l-5.634-2.77-14.362-3.944 6.917 11.727 8.046-1.932 7.593-1.822"/>
    <path fill="#6F6FD2" d="M0 .072l4.03 18.37 21.447 10.553 8.93 4.394-9.573-13.437"/>
    <path fill="#B1ADFF" d="M24.834 19.953l9.574 13.436V21.244"/>
    <path fill="#FF5745" d="M34.408 13.372v7.873l5.85-9.03"/>
    <path fill="#EE3F35" d="M29.033 14.435l5.375 6.81v-7.873"/>
  </g>
</svg>
